<svg xmlns="http://www.w3.org/2000/svg" width="28.634" height="39.879" viewBox="0 0 28.634 39.879"><g transform="translate(0 0.003)"><path d="M1.68,37.26s.68-1.95,1.21-2.23,4.64-1.44,5.62-1.95a14.28,14.28,0,0,1,5.04-1.02c1.25.08,6.01.85,6.37,1.33s.17.34.37.48,2.71.62,3.67,1.75a15.452,15.452,0,0,0,2.43,2.17s-14.77,5.03-24.71-.53Z" fill="#68b9b0" fill-rule="evenodd"/><path d="M11.28,31.91a2.077,2.077,0,0,0-.61,2.35c.52,1.5,2.84,2.57,5.25,1.87a4.41,4.41,0,0,0,2.99-2.8l-1.59-1.04.1-1.57s-4.81,2.26-6.14,1.19Z" fill="#68b9b0" fill-rule="evenodd"/><path d="M10.55,33.75a2.08,2.08,0,0,0,.12.51c.52,1.5,2.84,2.57,5.25,1.87a4.756,4.756,0,0,0,1.48-.73c-.12-.85-.29-1.96-.4-2.32-.2-.61-3.32,1.83-3.32,1.83a5.984,5.984,0,0,0,1.21.1c1,.02,2.13-.04,2.13-.04a11.174,11.174,0,0,1-1.86.61,6.66,6.66,0,0,1-2.45.14,9.594,9.594,0,0,0-1.35-1.68,1.378,1.378,0,0,0-.81-.29Zm7.37,1.2a4.235,4.235,0,0,0,.99-1.62l-1.52-1a10.694,10.694,0,0,0,.25,1.68A8.18,8.18,0,0,0,17.92,34.95Z" fill="#68b9b0" fill-rule="evenodd"/><path d="M11.28,31.91a2.089,2.089,0,0,0-.63,2.32c.12-.67.23-1.25.23-1.25a8.8,8.8,0,0,0,.74,2.51,4.826,4.826,0,0,0,3.45.82,5.589,5.589,0,0,1-.46-1.05,3.779,3.779,0,0,0,1.28-.78,4.31,4.31,0,0,0,1.16-1.52l.5,2.32a2.848,2.848,0,0,0,.26-.23l.01-2.43-.5-.33.1-1.57s-4.81,2.26-6.14,1.19Z" fill="#68b9b0" fill-rule="evenodd"/><path d="M4.99,18.56s-.63.39-.52.76a13.748,13.748,0,0,1,.05,1.95,9.7,9.7,0,0,0,.46,1.27c.17.31.91.52.91.52a8.426,8.426,0,0,0,1.02,3.79c1.01,1.69,3.42,6.6,5.36,7.42a4.544,4.544,0,0,0,4.93-.53,34.875,34.875,0,0,0,3.46-4.28,10.853,10.853,0,0,0,1.67-3.31c.31-1.09.54-2.55.54-2.55a5.248,5.248,0,0,0,1.87-1.49,5.767,5.767,0,0,0,.93-3.63c-.21-1.09-.73-1.68-1.34-1.11a3.629,3.629,0,0,0-.85,1.42s-.4-4.57-1.03-8.85,2.27-7.55-4.64-7.48S6.85,3.83,6.29,8.33s-1.3,10.23-1.3,10.23Z" fill="#68b9b0" fill-rule="evenodd"/><path d="M8.96,16.63S8.04,10,13.01,8.95s6.4,1.14,6.89,3.6.72,3.93.72,3.93-6.36.42-11.66.15Z" fill="#68b9b0" fill-rule="evenodd"/><path d="M11.41,19.91s-3.84-.21-4.37,1.07.22,3.63,1.87,3.08S11.41,19.91,11.41,19.91Z" fill="#68b9b0" fill-rule="evenodd"/><path d="M13.71,17.88a.634.634,0,0,1,.99.51,22.465,22.465,0,0,1,.11,3.23s.83,1.59-.23,2.4-2.32.63-2.33-.8a2.6,2.6,0,0,1,1.29-2.14Z" fill="#68b9b0" fill-rule="evenodd"/><path d="M15.4,22.27s.18,1.61.79,1.64.96-1.02.38-1.48A1.125,1.125,0,0,0,15.4,22.27Z" fill="#68b9b0" fill-rule="evenodd"/><path d="M16.68,20.14s1.55,4.77,4.02,4.74a2.432,2.432,0,0,0,1.55-4.25C20.82,19.28,19.05,20.53,16.68,20.14Z" fill="#68b9b0" fill-rule="evenodd"/><path d="M18.46,17.26s1.24-1.07,2.03-.59a1.364,1.364,0,0,1,.73,1.23.654.654,0,0,1-.78-.18A1.6,1.6,0,0,0,18.46,17.26Z" fill="#68b9b0" fill-rule="evenodd"/><path d="M11.3,26.37s-.86-.04-.99-.34.95-1.4.95-1.4l1.89.57s-.23.58-.18.58,1.41.18,1.67-.09.01-.96.01-.96a10.161,10.161,0,0,0,1.89-.31,1.655,1.655,0,0,0,.6-.67l1.14,2.09s-5.52,1.84-6.98.53Z" fill="#68b9b0" fill-rule="evenodd"/><path d="M8.62,25.98s.94,7,4.01,7.98a4.488,4.488,0,0,0,5.5-1.77s-2.41.02-3.51,0a10.124,10.124,0,0,0-2.4.34s-1.83-1.45-3.6-6.55Z" fill="#68b9b0" fill-rule="evenodd"/><path d="M16.17,34.41a3.391,3.391,0,0,0,1.03-.67,34.875,34.875,0,0,0,3.46-4.28,10.853,10.853,0,0,0,1.67-3.31c.11-.41.22-.86.3-1.27-2.21,1.42-1.97,3.21-3.23,5.67A13.869,13.869,0,0,1,16.17,34.41Z" fill="#68b9b0" fill-rule="evenodd"/><path d="M4.99,18.56s-.63.39-.52.76a13.748,13.748,0,0,1,.05,1.95,9.7,9.7,0,0,0,.46,1.27c.17.31.91.52.91.52a8.426,8.426,0,0,0,1.02,3.79c1.01,1.69,3.42,6.6,5.36,7.42a4.544,4.544,0,0,0,4.93-.53c.01-.01.03-.02.04-.04a6.672,6.672,0,0,1-3.58.58c-3.52-.52-5.05-6.17-5.35-8.55s-1.46-3.52-1.65-5.8a3.632,3.632,0,0,1,1.4-3.32,32.2,32.2,0,0,0,1.09-4.93,5.836,5.836,0,0,1,2.12-3.51C9.16,8.09,7.39,9.3,5.93,11.14c-.47,3.76-.94,7.42-.94,7.42Z" fill="#68b9b0" fill-rule="evenodd"/><path d="M6.78,19.22a1.435,1.435,0,0,0,.91.07,1.975,1.975,0,0,0,.76-.16,3.119,3.119,0,0,0,1.2.54l.52.04a3.917,3.917,0,0,1-.84-.44,1.7,1.7,0,0,1-.43-.44l2.58.07-1.53.29s1.56.28,1.74.28a3.912,3.912,0,0,0,.64-.18l-.72,2.54s-.85,1.28-.49,1.89a1.323,1.323,0,0,0,1.16.54s1.19.88,1.79.5.87-.6,1.22-.58a3.424,3.424,0,0,0,1.03-.22s.08-.27-.86-.18-1.21.66-2.12.26-1.38-1.06-1.1-1.83a2.979,2.979,0,0,1,.98-1.26s1.07-3.68-.97-4.17a4.7,4.7,0,0,0-2.96-.03,5.508,5.508,0,0,1,1.65.61,2.612,2.612,0,0,1,.54.58,21.192,21.192,0,0,0-2.3-.15,2.286,2.286,0,0,0-1.15.5l-.96-.38a.95.95,0,0,0,.39.47,1.175,1.175,0,0,0,.73.07s-.75.83-1.41.77Zm4.98,3s-.69.57-.56,1,.48.21.48,0a1.585,1.585,0,0,1,.08-1Z" fill="#68b9b0" fill-rule="evenodd"/><path d="M16.77,16.23a2.085,2.085,0,0,0-1.72,2.03,9.986,9.986,0,0,0,.54,3.05l.13-1.85a6.987,6.987,0,0,0,2.22.18,2,2,0,0,0,.97-.34,1.542,1.542,0,0,1-.69-.06,1.179,1.179,0,0,1-.58-.42l1.96-.12-.49.59a5.366,5.366,0,0,0,2.01-.33,1.787,1.787,0,0,0,.6-.95s-.57.4-.79.53a1.637,1.637,0,0,1-.58.18l1.19-.77s-1.1.41-1.1.37a1.643,1.643,0,0,0-1.13-1.07,6.125,6.125,0,0,0-2.07.28,7.289,7.289,0,0,1,2.77-.8c1.25.01,1.6.52,1.6.52s-1.14-1.77-4.84-1.02Z" fill="#68b9b0" fill-rule="evenodd"/><path d="M22.37,26c.29-1.06.5-2.4.5-2.4a5.511,5.511,0,0,0,1.79-1.37,2.454,2.454,0,0,0-.69-.35,1.053,1.053,0,0,0-.86.2l.33-.8a1.308,1.308,0,0,0,.62-.83,3.777,3.777,0,0,0,.1-.78l.48-1.26a10.221,10.221,0,0,0,.11,2.94.5.5,0,0,0,.32.2,5.518,5.518,0,0,0,.6-3.07c-.21-1.09-.73-1.68-1.34-1.11a3.629,3.629,0,0,0-.85,1.42s-.4-4.57-1.03-8.85a8.972,8.972,0,0,1-.09-1.25c-1.89-.88-3.5-1.62-3.5-1.62s1.03,5.82,1.45,7.25.84,2.61.84,2.61A17.119,17.119,0,0,1,22.37,26Z" fill="#68b9b0" fill-rule="evenodd"/><path d="M10.51,23.23s-1.97,1.2-1.41,3,1.81,6.2,5.28,5.98,3.26-3.95,3.26-3.95-.95,2.67-2.93,3.04-4.09-3.26-4.09-3.26l3-.42,1.66-.44a11.4,11.4,0,0,0-2.76-1.09c-1.07-.15-1.69-.17-1.69-.17L9.72,25.6l2.12-.54a2.64,2.64,0,0,0,1.86.46c1.01-.17,1.19-.62,1.19-.62s1.95-.11,2.08-.83.02-.9.02-.9l1.83,2.38a11.721,11.721,0,0,0-.34,2.56c.04.97.07,1.4.07,1.4s1.88-2.74,1.31-4.08-3.72-3.97-3.72-3.97.63,1.8.31,2.32a4.619,4.619,0,0,1-2.88.93,7.391,7.391,0,0,1-2.04-.84,2.036,2.036,0,0,1-.42-.78.663.663,0,0,1,.07-.47l-.67.61Z" fill="#68b9b0" fill-rule="evenodd"/><path d="M6.61,19.26a1.194,1.194,0,0,0,.83.02c.59-.13.71-.33.68-.33a2.238,2.238,0,0,1-1.51.31Z" fill="#68b9b0" fill-rule="evenodd"/><path d="M8.19,18.69a1.236,1.236,0,0,0,.65.75,1.992,1.992,0,0,0,.8.23A2.984,2.984,0,0,1,8.19,18.69Z" fill="#68b9b0" fill-rule="evenodd"/><path d="M7.92,18.61a1.154,1.154,0,0,0,.61.01,1.658,1.658,0,0,0,.55-.29,4.226,4.226,0,0,0,1.41.31,10.735,10.735,0,0,0,1.46-.07l.64.44s-.11.62-.11.58.48-.46.28-.94a2.286,2.286,0,0,0-1.95-.91,6.514,6.514,0,0,0-2.29.23,3.193,3.193,0,0,0-.6.64Z" fill="#68b9b0" fill-rule="evenodd"/><path d="M7.07,17.91s.09.4.27.51a.933.933,0,0,0,.42.13A1.311,1.311,0,0,1,7.07,17.91Z" fill="#68b9b0" fill-rule="evenodd"/><path d="M6.73,18.45s.56.51.87.45a.865.865,0,0,0,.42-.15,1.924,1.924,0,0,1-1.29-.3Z" fill="#68b9b0" fill-rule="evenodd"/><path d="M15.56,18.68a3.461,3.461,0,0,1,2.84-1.3c1.82.1,1.89.95,1.89.95a.408.408,0,0,1-.28-.17c-.08-.13-.13-.32-.17-.33a2.31,2.31,0,0,0-1.72-.19,9.908,9.908,0,0,0-2.56,1.04Z" fill="#68b9b0" fill-rule="evenodd"/><path d="M15.82,18.81a2.3,2.3,0,0,1,.59-.45,1.161,1.161,0,0,1,.38-.1,1.941,1.941,0,0,1,1.66-.62,2.813,2.813,0,0,1,1.86.94l.74-.28a4.461,4.461,0,0,1-.54.4,2.907,2.907,0,0,1-.31.04l.74.03a2.828,2.828,0,0,1-.73.1,1.653,1.653,0,0,1-.62-.38,15.118,15.118,0,0,1-1.65.18c-.6,0-.85-.03-.9-.03s-1.22.17-1.22.17Z" fill="#68b9b0" fill-rule="evenodd"/><path d="M9.58,24.3c.02-.05,1.45-1.48,1.45-1.48a9.081,9.081,0,0,0,.62-.88,1.3,1.3,0,0,1,.29-.36,1.791,1.791,0,0,1-.14.49c-.09.19-.72.71-.69,1.08s.17.74.68.78.46.15,1.2.55.91.26,1.63-.19a2.036,2.036,0,0,1,1.5-.25.755.755,0,0,0,.57-.75,2.326,2.326,0,0,0-.31-1.27s.68.92.37,1.65-1.81.74-1.81.74-.11.53-1.24.5a2.454,2.454,0,0,1-1.64-.56s-.94.09-1.02-.36a2.914,2.914,0,0,1-.04-.78s-.92,1.1-1.42,1.09Z" fill="#68b9b0" fill-rule="evenodd"/><path d="M9.38,24.86s-.64.5-.4.99.58,1.49.58,1.49l-.29-1.46A2.1,2.1,0,0,1,9.38,24.86Z" fill="#68b9b0" fill-rule="evenodd"/><path d="M17.09,22.71s1.93,2.43,2.07,2.75a28.091,28.091,0,0,1-.41,3.62c.01-.09,1.07-3.02.86-3.63a17.675,17.675,0,0,0-2.52-2.74Z" fill="#68b9b0" fill-rule="evenodd"/><path d="M9.52,26.51s0-1.08,1.49-.58,4.81.76,5.38.41a3.445,3.445,0,0,1,1.86-.64c.56.06.71.27.71.27a5.428,5.428,0,0,1-.64.86,2.576,2.576,0,0,1-1.2.54s-.66,2.4-2.47,2.5-4.49-2.38-5.13-3.36Z" fill="#68b9b0" fill-rule="evenodd"/><path d="M25.64,19.79a3.883,3.883,0,0,0,.03-1.31,3.733,3.733,0,0,0-.22-.73l-1.47.04a3.755,3.755,0,0,0-.5,1s-.03-.37-.1-.99l-.25.01L23,21.39a1.993,1.993,0,0,0,.64-.77l.12-.39s.7.24.88-.41a3.929,3.929,0,0,0,.14-1.12,1.965,1.965,0,0,1,.86,1.09Z" fill="#68b9b0" fill-rule="evenodd"/><path d="M4.99,18.56s-.63.39-.52.76a13.748,13.748,0,0,1,.05,1.95s.03.11.08.27c.01-.03.02-.07.03-.1a4.339,4.339,0,0,0,.08-1.23s.27.6.47.63a.739.739,0,0,0,.22.02l.42,1.55s-.34-4.86.73-7.62A16.346,16.346,0,0,0,7.61,9.43a19.807,19.807,0,0,0,3.66-1.26,6.268,6.268,0,0,0,2.34-1.48l-.47,1.28s5.81-1.56,8.01.94a1.387,1.387,0,0,0,1.24.51c-.35-4.03,2.05-7.03-4.58-6.96C10.89,2.54,6.85,3.83,6.29,8.33s-1.3,10.23-1.3,10.23Z" fill="#68b9b0" fill-rule="evenodd"/><path d="M4.99,12.46a8.793,8.793,0,0,0-.93,1.92,3.042,3.042,0,0,1-.12.71s-1.38-.03-1.62-.44a2.865,2.865,0,0,1-.25-.48l.22,1.31L1.3,14.19a1.145,1.145,0,0,0,.1.81,3.016,3.016,0,0,0,.3.56L0,15.21s.22,1.64,1,2.06a1.41,1.41,0,0,0,1.41-.03l-1.04.99h.46a9.782,9.782,0,0,1-.07,1.22c-.08.39-.24.48-.24.48a4.959,4.959,0,0,0,1.75,0,3.608,3.608,0,0,0,1.2-.61.859.859,0,0,0,.35.66,2.708,2.708,0,0,0,.43.25l.61.86s0-3.67.2-4.85a17.055,17.055,0,0,1,.34-1.71,17.923,17.923,0,0,0,.48-2.56,6.349,6.349,0,0,0,0-1.4L4.99,12.46Z" fill="#68b9b0" fill-rule="evenodd"/><path d="M8.93,7.68a11.844,11.844,0,0,0,3.17-.49,9.1,9.1,0,0,0,2.16-1.27l-.73,1.15a16.21,16.21,0,0,0,3.45.33c1.11-.14,2.59-.49,2.59-.49a46.871,46.871,0,0,0,2.12,7.07c.89,1.69.77,2.26.77,2.26l.78,4.27a9.316,9.316,0,0,0,.9-1.23c.42-.69.7-1.28.7-1.28s.38-.09.33,1.34a4.95,4.95,0,0,1-1.32,3.32,1.176,1.176,0,0,1-.94.22l-.12,1.19s.59-.08.67-.28l.07-.21a2.265,2.265,0,0,0,1.77-.43c.57-.63.79-.93.79-.93s-.07.2-.62.21-.73.02-.73.02a1.5,1.5,0,0,0,.83-.6c.29-.46.35-.58.35-.58a4.119,4.119,0,0,0,2.3-1.98,3.166,3.166,0,0,0,.18-2.78,6.493,6.493,0,0,1-.71.7,2.347,2.347,0,0,1-.93.31s1.39-.68,1.19-1.59-1.4-.99-1.4-.99l-.78-1.82-.38,1.71a7.422,7.422,0,0,1-1.18-4.45c-.01-3.02.45-7.92-6.04-9.38S8.31,4.34,8.93,7.68Z" fill="#68b9b0" fill-rule="evenodd"/><path d="M4.68,20.32s-.53.34-.82.53a1.272,1.272,0,0,1-.41.22.669.669,0,0,0,.44.07,2.345,2.345,0,0,0,.49-.2,9.89,9.89,0,0,1-.45,1.15c-.14.22-.19.2-.18.25s.86.73.86.73l-1.02-.36A5.421,5.421,0,0,0,5.32,24.5c.91.43.86.46.86.46a16.4,16.4,0,0,1-.29-1.68v-.44a2.051,2.051,0,0,1-1.21-2.52Z" fill="#68b9b0" fill-rule="evenodd"/><path d="M10.78,4.85s.35.99.93,1.19a2.15,2.15,0,0,0,1.36-.2,8.881,8.881,0,0,1-2.29-.99Z" fill="#68b9b0" fill-rule="evenodd"/><path d="M12.79,5.28s-.77-.14-.6-.76a3.579,3.579,0,0,1,.86-1.28s-.01,1.32,0,1.27.76-.84.76-.84-.01.36-.01.6-.05.51-.01.41.8-1.4.8-1.4l-.23,1.08L15.4,3.2a2.954,2.954,0,0,1-.36,1.14,2.736,2.736,0,0,1-.77.76l-1.48.18Z" fill="#68b9b0" fill-rule="evenodd"/><path d="M15.32,5.51a2.567,2.567,0,0,1,.18-1.48,10.721,10.721,0,0,1,.69-1.04L16.09,4l.45-.6s-.63,1.74-1.22,2.11Z" fill="#68b9b0" fill-rule="evenodd"/><path d="M16.62,5.4a2.494,2.494,0,0,1-.1-1.34c.17-.54.26-.76.26-.76V4.56l.47-1.44s-.16,1.37-.24,1.78a.605.605,0,0,1-.39.5Z" fill="#68b9b0" fill-rule="evenodd"/><path d="M17.73,5.56A10.884,10.884,0,0,1,17.49,4c-.03-.65-.03-.73-.03-.73s.59,1.14.57,1.06-.15-.91-.15-.91a2.846,2.846,0,0,1,.55.76c.15.39.37,1.18.37,1.18l-.63-.75.35,1.08a3.843,3.843,0,0,1-.64-.8,2.6,2.6,0,0,1-.07-.48l-.08,1.15Z" fill="#68b9b0" fill-rule="evenodd"/><path d="M18.7,3.07a17.058,17.058,0,0,0,.29,2.04,1.483,1.483,0,0,0,.42.49,5.939,5.939,0,0,0-.71-2.53Z" fill="#68b9b0" fill-rule="evenodd"/><path d="M25.51,14.28l-.09.39a1.724,1.724,0,0,0,.2-.14Zm-.2.45a6.3,6.3,0,0,1-.82-1.99l-1.7.49a4.148,4.148,0,0,0,1.36,1.6A1.307,1.307,0,0,0,25.31,14.73Z" fill="#68b9b0" fill-rule="evenodd"/><path d="M4.99,12.46a8.793,8.793,0,0,0-.93,1.92,3.042,3.042,0,0,1-.12.71s-1.38-.03-1.62-.44a2.865,2.865,0,0,1-.25-.48l.22,1.31L1.3,14.19a1.145,1.145,0,0,0,.1.81c.02.04.03.07.05.11a3.107,3.107,0,0,0,1.97.59,2.429,2.429,0,0,0,1.56-1.48l-.24,1.39.7-1.72a11.853,11.853,0,0,0-.3,3.21,1.858,1.858,0,0,0,.78,1.01,17.647,17.647,0,0,1,.14-1.87,17.055,17.055,0,0,1,.34-1.71,17.923,17.923,0,0,0,.48-2.56,6.349,6.349,0,0,0,0-1.4L4.99,12.46Z" fill="#68b9b0" fill-rule="evenodd"/><path d="M2.17,17.47l-.8.76h.46a9.782,9.782,0,0,1-.07,1.22c-.08.39-.24.48-.24.48a4.959,4.959,0,0,0,1.75,0,3.493,3.493,0,0,0,.86-.38l-.39-1.26a1.226,1.226,0,0,0,.41-.31,4.924,4.924,0,0,0,.55-1.1l-.63.39.95-1.57a7.338,7.338,0,0,1-1.89,1.36C2.8,17.22,2.47,17.36,2.17,17.47Z" fill="#68b9b0" fill-rule="evenodd"/><path d="M4.99,12.46a11.9,11.9,0,0,0-.87,1.68c.5-.66,1.2-1.61,1.2-1.61s-.03,1.98-.03,2.07.66-1.52.66-1.52-.29,1.8-.33,2.66-.03,3.51-.02,3.95-.65-3.74-.65-3.74a16.512,16.512,0,0,0-.88,1.62c-.01.18.21.76.21,1.09a3.3,3.3,0,0,1-.38,1.02,3.544,3.544,0,0,0,.57-.36.859.859,0,0,0,.35.66,2.708,2.708,0,0,0,.43.25l.61.86s0-3.67.2-4.85a17.055,17.055,0,0,1,.34-1.71,17.923,17.923,0,0,0,.48-2.56,6.349,6.349,0,0,0,0-1.4L4.99,12.46Zm-3.4,2.92a2.1,2.1,0,0,0,.11.18L0,15.21s.22,1.64,1,2.06a1.41,1.41,0,0,0,1.41-.03l-1.04.99h.46a9.782,9.782,0,0,1-.07,1.22c-.08.39-.24.48-.24.48a4.959,4.959,0,0,0,1.75,0,3.064,3.064,0,0,0,.63-.25l-.96-2.79s1.05-.05,1.3-.37a11.347,11.347,0,0,0,.77-1.51,4.494,4.494,0,0,1-2.4.73,1.819,1.819,0,0,1-1.02-.36Z" fill="#68b9b0" fill-rule="evenodd"/><path d="M8.93,7.68a11.844,11.844,0,0,0,3.17-.49,9.1,9.1,0,0,0,2.16-1.27l-.73,1.15a16.21,16.21,0,0,0,3.45.33c1.11-.14,2.59-.49,2.59-.49a46.871,46.871,0,0,0,2.12,7.07c.89,1.69.77,2.26.77,2.26l.78,4.27a9.316,9.316,0,0,0,.9-1.23c.42-.69.7-1.28.7-1.28a.106.106,0,0,1,.06,0,2.161,2.161,0,0,0,.06-.96,1.923,1.923,0,0,0-.88-1.03l.61.22c.61.23,1.75.81,1.75.81l-.84.87a12.359,12.359,0,0,0,1.78-.8,1.265,1.265,0,0,0,.57-1.18,1.023,1.023,0,0,0-.43-.65v1.25a2.091,2.091,0,0,0-.32-.71c-.25-.34-1.54-.27-1.54-.27s.02,0,.47.12.86,1.05.86,1.05a2.885,2.885,0,0,0-.87-.6,2.545,2.545,0,0,0-1.31-.27,2.837,2.837,0,0,1,.94-.67,3.672,3.672,0,0,1,1.35-.12,1.939,1.939,0,0,0-.55-.12l-.78-1.82-.28,1.26c-.03.13-.05.24-.07.32l-.03.13a.01.01,0,0,1-.01-.01.867.867,0,0,1-.64.47,7.935,7.935,0,0,1-.92-.24c-.52-.17-.96-.98-.96-.98a2.58,2.58,0,0,0,.43.36,1.39,1.39,0,0,0,.85.14l-.97-.83a1.317,1.317,0,0,0,1,.33,2.586,2.586,0,0,0,.68-.21,9.244,9.244,0,0,1-.64-3.48,13.847,13.847,0,0,0-.67-5.45c-.63-.84-1.25-1.66-1.76-2.32a7.393,7.393,0,0,0-2.17-1.18L14.28,2.79s3.62,0,4.26.69a4.984,4.984,0,0,1,.7,2.5l-.73-1.95.01,2.17a3.336,3.336,0,0,0-.16-.82,9.675,9.675,0,0,0-1.22-1.87s-.09,1.02-.16,1.6a6.616,6.616,0,0,1-.76,1.69,5.506,5.506,0,0,0,.32-1.09c0-.27-.17-1.8-.17-1.8L15.03,6.44a7.076,7.076,0,0,0,.28-.88c.1-.43.54-2.14.54-2.14L14.16,4.9l-2.05.48,1.74.08-2.04.68-1.26-.42s.71-.29,1.8-.83A2.788,2.788,0,0,0,13.61,2.9s-1.69.26-3.62.65A5.526,5.526,0,0,0,8.93,7.68ZM25.17,19.12v.22a4.95,4.95,0,0,1-1.32,3.32,1.176,1.176,0,0,1-.94.22l-.12,1.19s.59-.08.67-.28l.07-.21a2.265,2.265,0,0,0,1.77-.43c.57-.63.79-.93.79-.93s-.07.2-.62.21-.73.02-.73.02a1.5,1.5,0,0,0,.83-.6c.29-.46.35-.58.35-.58a4.159,4.159,0,0,0,2.3-1.97l-2.03.81s.03-.01.58-.42a12.574,12.574,0,0,0,1.65-2.05s-.21.33-1.54.95a6.513,6.513,0,0,1-1.71.53Z" fill="#68b9b0" fill-rule="evenodd"/><path d="M4.68,20.32s-.53.34-.82.53a1.272,1.272,0,0,1-.41.22.669.669,0,0,0,.44.07,2.345,2.345,0,0,0,.49-.2,9.89,9.89,0,0,1-.45,1.15c-.14.22-.19.2-.18.25s.86.73.86.73l-1.02-.36A5.421,5.421,0,0,0,5.32,24.5c.91.43.86.46.86.46a16.4,16.4,0,0,1-.29-1.68v-.44a2.051,2.051,0,0,1-1.21-2.52Z" fill="#68b9b0" fill-rule="evenodd"/><path d="M4.99,12.46a8.793,8.793,0,0,0-.93,1.92.41.41,0,0,1-.01.11l1.61-1.37a24.75,24.75,0,0,1,.18,2.55,12.207,12.207,0,0,1-.5,3.18l-.35-2.38-.71,1.38s.18.93.18,1.05a.983.983,0,0,1-1.12.32,3.468,3.468,0,0,1-1.22-1.07l1.21.67-.48-1.31.92.61L2.9,16.81s1.28-.27,1.59-.74a5.853,5.853,0,0,0,.53-1.45,2.284,2.284,0,0,1-1.56,1.21,2.532,2.532,0,0,1-1.77-.29.035.035,0,0,0,.01.02L0,15.21s.22,1.64,1,2.06a1.41,1.41,0,0,0,1.41-.03l-1.04.99h.46a9.782,9.782,0,0,1-.07,1.22c-.08.39-.24.48-.24.48a4.959,4.959,0,0,0,1.75,0,3.608,3.608,0,0,0,1.2-.61.859.859,0,0,0,.35.66,2.708,2.708,0,0,0,.43.25l.61.86s0-3.67.2-4.85a17.055,17.055,0,0,1,.34-1.71,17.923,17.923,0,0,0,.48-2.56,6.349,6.349,0,0,0,0-1.4L4.99,12.46Z" fill="#68b9b0" fill-rule="evenodd"/><path d="M8.93,7.68a11.844,11.844,0,0,0,3.17-.49,9.1,9.1,0,0,0,2.16-1.27l-.73,1.15a16.21,16.21,0,0,0,3.45.33c1.11-.14,2.59-.49,2.59-.49a46.871,46.871,0,0,0,2.12,7.07c.89,1.69.77,2.26.77,2.26l.78,4.27a9.316,9.316,0,0,0,.9-1.23c.42-.69.7-1.28.7-1.28s.38-.09.33,1.34a4.95,4.95,0,0,1-1.32,3.32,1.176,1.176,0,0,1-.94.22l-.12,1.19s.59-.08.67-.28l.07-.21a3.243,3.243,0,0,0,.95-.02,10.946,10.946,0,0,0,.26-1.11h.01c.13-.72.19-1.26.19-1.26a4.733,4.733,0,0,0,1.41-.39,7.956,7.956,0,0,0,1.72-1.23c.04-.08.09-.15.13-.23a4.121,4.121,0,0,1-.85.35,7.342,7.342,0,0,1-1.86.28,9.328,9.328,0,0,0,1.4-.57,7.9,7.9,0,0,0,1.44-1.34l-1.99.85a2.016,2.016,0,0,0-.39-1.22c-.43-.56-1.32-.09-1.32-.09a2.335,2.335,0,0,0-.26-1.08,10.636,10.636,0,0,0-1.68-1.37,1.8,1.8,0,0,0,.9.35,2.042,2.042,0,0,0,1.08-.09,6.514,6.514,0,0,1-1.16-.32c-1-.33-1.44-2.04-1.44-2.04l1.1,1.22-1.65-2.43a8.212,8.212,0,0,0,2.07,1.95,1.3,1.3,0,0,0,1.17-.16,9.327,9.327,0,0,1-.55-3.25c-.01-1.83.16-4.33-1.14-6.36L18.55,2.81s1.17,1.34,1.09,2.18a2.67,2.67,0,0,1-.89,1.54V4.79l-.73,1.74a11.62,11.62,0,0,0-.14-1.64,2.978,2.978,0,0,0-.52-1.07,7.475,7.475,0,0,1-.25,1.46,5.645,5.645,0,0,1-1.26,1.74,4.441,4.441,0,0,0,.59-1.39,8.114,8.114,0,0,0-.03-1.28L15.03,6.23l.8-2.01-1.16.92a5.854,5.854,0,0,0-1.21-.06,14.65,14.65,0,0,0-2.38.28l2.32.27a2.427,2.427,0,0,1-.71.76,12.66,12.66,0,0,1-2.35.51l1.19-.54a11.77,11.77,0,0,0-2.59-.4,4.973,4.973,0,0,0-.01,1.72Z" fill="#68b9b0" fill-rule="evenodd"/><path d="M4.68,20.32s-.53.34-.82.53a1.272,1.272,0,0,1-.41.22.669.669,0,0,0,.44.07,2.345,2.345,0,0,0,.49-.2,9.89,9.89,0,0,1-.45,1.15c-.14.22-.19.2-.18.25s.86.73.86.73l-1.02-.36A5.421,5.421,0,0,0,5.32,24.5c.91.43.86.46.86.46a16.4,16.4,0,0,1-.29-1.68v-.44a2.051,2.051,0,0,1-1.21-2.52Z" fill="#68b9b0" fill-rule="evenodd"/><path d="M26.85,17.47c.3-.16,1.27-.77,1.1-1.54-.19-.92-1.4-.99-1.4-.99l-.69-1.61.44,1.68a7.676,7.676,0,0,1,.96.21c.28.1.49.77.49.87s-.09-.24-.35-.51a1.079,1.079,0,0,0-.78-.23.786.786,0,0,1,.52.38,1.569,1.569,0,0,1,.05.78s-.08-.3-.95-.46a1.517,1.517,0,0,0-1.25.15,2.055,2.055,0,0,1,2.03.62l-.64.74s.09.03.47-.09Z" fill="#68b9b0" fill-rule="evenodd"/><path d="M16.28,18.64a2.974,2.974,0,0,1,.27-.22,2.481,2.481,0,0,1,.39-.09,1.8,1.8,0,0,1,1.27-.59,1.936,1.936,0,0,1,1.42.53,10.454,10.454,0,0,1-2.61.23A3.172,3.172,0,0,1,16.28,18.64Z" fill="#68b9b0" fill-rule="evenodd"/><path d="M19.31,18.33a10.857,10.857,0,0,1-2,.19c.03-.16.2-.46.9-.54A1.261,1.261,0,0,1,19.31,18.33Z" fill="#68b9b0" fill-rule="evenodd"/><path d="M16.28,18.64a2.974,2.974,0,0,1,.27-.22,2.481,2.481,0,0,1,.39-.09,1.8,1.8,0,0,1,1.27-.59,1.936,1.936,0,0,1,1.42.53s-.08.01-.21.04a1.384,1.384,0,0,0-.23-.14.9.9,0,0,1-.08.19,10.443,10.443,0,0,1-1.53.16.78.78,0,0,1-.15-.35.531.531,0,0,0-.22.35c-.06-.01-.13-.01-.19-.02a3.172,3.172,0,0,1-.74.14Z" fill="#68b9b0" fill-rule="evenodd"/><path d="M16.28,18.64a2.974,2.974,0,0,1,.27-.22,2.481,2.481,0,0,1,.39-.09.517.517,0,0,1,.06-.07l-.01.25A3.114,3.114,0,0,1,16.28,18.64Z" fill="#68b9b0" fill-rule="evenodd"/><path d="M17.52,17.91a1.941,1.941,0,0,1,.69-.17,1.807,1.807,0,0,1,.91.18v.1a.863.863,0,0,1-.08.36,11.977,11.977,0,0,1-1.35.14.8.8,0,0,1-.17-.5Z" fill="#68b9b0" fill-rule="evenodd"/><path d="M17.58,17.88a1.947,1.947,0,0,1,.63-.14,1.849,1.849,0,0,1,.85.15c0,.04.01.08.01.13a.787.787,0,0,1-.1.37c-.34.05-.78.11-1.21.13a.758.758,0,0,1-.19-.5c0-.05.01-.1.01-.14Z" fill="#68b9b0" fill-rule="evenodd"/><path d="M18.06,17.75c.05,0,.1-.01.15-.01a2.224,2.224,0,0,1,.37.01.37.37,0,1,1-.52,0Z" fill="#68b9b0" fill-rule="evenodd"/><path d="M18.53,17.83a.094.094,0,0,1,.1.1.1.1,0,0,1-.1.1.108.108,0,0,1-.1-.1A.1.1,0,0,1,18.53,17.83Z" fill="#68b9b0" fill-rule="evenodd"/><path d="M16.04,18.74a1.34,1.34,0,0,1,.42-.33c.15-.05.36-.11.36-.11a1.868,1.868,0,0,1,1.47-.63,3.171,3.171,0,0,1,1.82.68s-.31.02-.41.02a.691.691,0,0,1-.12-.02,9.494,9.494,0,0,1-1.57.2h-.98l-.99.19Zm.89-.24v-.11c-.08.02-.18.05-.24.06a1.438,1.438,0,0,0-.3.14,2.035,2.035,0,0,0,.54-.09Zm.12-.13v.09a9.641,9.641,0,0,0,2.43-.18,2.194,2.194,0,0,0-1.39-.48,1.413,1.413,0,0,0-1.04.57Z" fill="#68b9b0" fill-rule="evenodd"/><path d="M16.08,18.39a3.275,3.275,0,0,1,2.32-1.01c1.66-.13,1.8.95,1.8.95l-.19-.17-.09-.24s-1.05-1.16-3.84.47Z" fill="#68b9b0" fill-rule="evenodd"/><path d="M15.73,17.47a2.734,2.734,0,0,1-.01-.79,1.9,1.9,0,0,1,.32-.5l-.01.36.33-.57.72-.07-.4.44.62-.43s2.93-.21,3.53.17a1.857,1.857,0,0,1,.71,1.24,1.5,1.5,0,0,0-1.15-.63c-.67,0-1.59.11-1.59.11s-1.52.38-3.07.67Z" fill="#68b9b0" fill-rule="evenodd"/><path d="M6.8,17.71a1.831,1.831,0,0,1,1.47-1.44,16.061,16.061,0,0,1,2.68-.19l.6.33-.31-.29a2.1,2.1,0,0,1,.57.08c.05.06.19.25.19.25l-.22-.51s.51.12.62.33a7.3,7.3,0,0,1,.22,1.11,16.026,16.026,0,0,0-2.68-.3c-1.21,0-1.78.05-1.78.05a2.805,2.805,0,0,1-1.36.58Z" fill="#68b9b0" fill-rule="evenodd"/><path d="M9.04,18.13a1.489,1.489,0,0,1,1.22-.34,2.9,2.9,0,0,1,1.48.67S9.49,18.74,9.04,18.13Z" fill="#68b9b0" fill-rule="evenodd"/><path d="M11.28,18.5a4.486,4.486,0,0,1-2.05-.21,2.97,2.97,0,0,1,.95-.18A1.383,1.383,0,0,1,11.28,18.5Z" fill="#68b9b0" fill-rule="evenodd"/><path d="M9.04,18.13a1.489,1.489,0,0,1,1.22-.34,2.9,2.9,0,0,1,1.48.67s-.09.01-.23.02a2.9,2.9,0,0,0-.5-.26.61.61,0,0,1-.15.3c-.68.02-1.56-.03-1.82-.39Z" fill="#68b9b0" fill-rule="evenodd"/><path d="M9.36,17.92a1.726,1.726,0,0,1,.9-.13,2.576,2.576,0,0,1,.7.19.765.765,0,0,1-.27.54,3.972,3.972,0,0,1-1.17-.12.791.791,0,0,1-.16-.48Z" fill="#68b9b0" fill-rule="evenodd"/><path d="M9.41,17.9a1.862,1.862,0,0,1,.85-.11,2.3,2.3,0,0,1,.65.17.73.73,0,0,1-.31.56,4.5,4.5,0,0,1-.99-.09.754.754,0,0,1-.2-.51V17.9Z" fill="#68b9b0" fill-rule="evenodd"/><path d="M9.81,17.8a2.183,2.183,0,0,1,.45-.01c.09.01.18.03.26.04a.277.277,0,0,1,.01.09.37.37,0,1,1-.74,0,.5.5,0,0,1,.02-.12Z" fill="#68b9b0" fill-rule="evenodd"/><path d="M8.2,18.55a1.206,1.206,0,0,1,1.04-.77,1.265,1.265,0,0,1,.28-.03,3.236,3.236,0,0,1,2.02.4,2.109,2.109,0,0,1,.75.57,2.926,2.926,0,0,1-.44-.11l-.21-.08s-1.36.03-1.77,0a1.853,1.853,0,0,1-.82-.32,1.412,1.412,0,0,1-.85.34Zm.95-.4s.2-.3.99-.31a2.54,2.54,0,0,1,1.48.63s-1.58.04-1.88-.02a1.774,1.774,0,0,1-.59-.3Z" fill="#68b9b0" fill-rule="evenodd"/><path d="M11.61,18.35l.13.15.29.11A1.461,1.461,0,0,0,11.61,18.35Z" fill="#68b9b0" fill-rule="evenodd"/><circle cx="0.08" cy="0.08" r="0.08" transform="translate(10.36 17.88)" fill="#68b9b0"/><path d="M9.36,17.8l-.03-.04a7.835,7.835,0,0,1,2.57.16,1.372,1.372,0,0,1,.98.98,1.066,1.066,0,0,1-.36-.25c-.12-.15-.26-.33-.26-.33a4.225,4.225,0,0,0-2.9-.52Z" fill="#68b9b0" fill-rule="evenodd"/><path d="M9.97,24.11s1.24-1.5,1.48-1.83a3.03,3.03,0,0,0,.36-.7.447.447,0,0,1,.01.38c-.1.14-.71.75-.71,1.19s.08.71.29.74.47-.21.97.12.92.82,1.31.76a3.186,3.186,0,0,0,.86-.32,1.4,1.4,0,0,1-1.03.39,3.224,3.224,0,0,1-1.21-.68s-1.05.21-1.2-.37a1.711,1.711,0,0,1-.09-.73L9.97,24.11Z" fill="#68b9b0" fill-rule="evenodd"/><path d="M14.66,24.37a2.213,2.213,0,0,1,.95-.4,1.106,1.106,0,0,0,1.06-.45,2.217,2.217,0,0,0-.14-1.2,1.468,1.468,0,0,1,.24.99c-.07.58-.83.8-.83.8a3.7,3.7,0,0,0-1.28.26Z" fill="#68b9b0" fill-rule="evenodd"/><path d="M17.23,22.92s1.67,1.86,1.91,2.3a2.132,2.132,0,0,1,.09,1.34c-.07.44-.32,2.14-.32,2.14a11.976,11.976,0,0,0,.66-2.95c-.12-.61-1.85-2.38-2.34-2.83Z" fill="#68b9b0" fill-rule="evenodd"/><path d="M9.69,26.47s.03-.55.98-.55,2.18.17,3.13.2,2.02-.36,3.26-.36,1.63.14,1.7.37a.247.247,0,0,1-.1.32s-.7,3.85-3.28,4.32-4.53-.41-5.5-4.24c0,0-.12-.09-.19-.06Z" fill="#68b9b0" fill-rule="evenodd"/><path d="M9.69,26.47s.03-.55.98-.55c.47,0,1,.04,1.54.09a4.882,4.882,0,0,1,.89.3c1.2.57,2.21.01,3.73-.43a2.687,2.687,0,0,1,1.88.16.405.405,0,0,1,.05.09.247.247,0,0,1-.1.32,8.62,8.62,0,0,1-.7,2.05c.08-.61.16-1.13.16-1.13s-1.31,2.14-3.05,2.45a6.559,6.559,0,0,1-3.85-1.01,4.017,4.017,0,0,0,1.59,1.64,4.934,4.934,0,0,0,.9.41c-1.75-.18-3.08-1.38-3.83-4.33,0,0-.12-.09-.19-.06Z" fill="#68b9b0" fill-rule="evenodd"/><path d="M9.69,26.47s.03-.55.98-.55h.16q.135.045.3.09a7.266,7.266,0,0,0,3.71.52c1.12-.2,2.31-.67,3.12-.74.55.06.75.18.8.34a.247.247,0,0,1-.1.32s-.02.07-.05.2l-.58.35s-.76,2.31-2.66,2.72a4.834,4.834,0,0,1-4.39-1.81,3.951,3.951,0,0,0-.94-.82c-.06-.18-.11-.36-.16-.56,0,0-.12-.09-.19-.06Z" fill="#68b9b0" fill-rule="evenodd"/><path d="M9.69,26.47a.56.56,0,0,1,.4-.45,1.088,1.088,0,0,1,.6.06,10.681,10.681,0,0,0,4.12.55c1.64-.15,2.78-.92,3.55-.69.12.04.24.07.35.1a.405.405,0,0,1,.05.09.247.247,0,0,1-.1.32l-.71.44s-.82,2.54-2.71,2.85a3.887,3.887,0,0,1-3.98-1.87,3.077,3.077,0,0,0-1.32-1.13l-.06-.21s-.12-.09-.19-.06Z" fill="#68b9b0" fill-rule="evenodd"/><path d="M9.32,25.01a.729.729,0,0,0-.36.76,6.091,6.091,0,0,0,.43,1.14,8.571,8.571,0,0,1-.33-1.25,1.747,1.747,0,0,1,.26-.65Z" fill="#68b9b0" fill-rule="evenodd"/><path d="M11,26.31s.17.55.29.61a.529.529,0,0,0,.19.06,2.436,2.436,0,0,0,.12.35.127.127,0,0,0,.08.03s.06.17.18.18.37-.31.37-.31a.473.473,0,0,0,.25.45.545.545,0,0,0,.51-.14s.04.28.54.31.56-.12.56-.12a1.049,1.049,0,0,0,.71.14c.37-.09.41-.3.41-.3a.414.414,0,0,0,.43.15.475.475,0,0,0,.32-.39s.23.32.39.26.21-.32.21-.32.19.19.36.07.17-.17.17-.17a.509.509,0,0,0,.31-.22l.06-.16a.414.414,0,0,0,.29-.26,3.5,3.5,0,0,0,.12-.44,4.8,4.8,0,0,0-1.41.29,6.532,6.532,0,0,1-3.25.32c-1.44-.22-2.21-.39-2.21-.39Z" fill="#68b9b0" fill-rule="evenodd"/><path d="M11.77,27.5a.355.355,0,0,0,.09.04c.13.01.37-.31.37-.31a.473.473,0,0,0,.25.45.545.545,0,0,0,.51-.14s.04.28.54.31.56-.12.56-.12a1.049,1.049,0,0,0,.71.14c.37-.09.41-.3.41-.3a.414.414,0,0,0,.43.15.475.475,0,0,0,.32-.39s.23.32.39.26.21-.32.21-.32a.388.388,0,0,0,.23.11c-.01-.36-.06-.73-.2-.76-.28-.06-.52.39-.52.39s-.01-.14-.22-.22-.61.37-.61.37a1.75,1.75,0,0,0-.57-.28c-.18,0-.53.35-.53.35a1,1,0,0,0-.46-.27c-.36-.13-.68.33-.68.33s-.17-.33-.36-.32a.3.3,0,0,0-.25.15s-.33-.39-.49-.27c-.11.07-.12.37-.13.65Z" fill="#68b9b0" fill-rule="evenodd"/><path d="M11,26.31s.17.55.29.61a.529.529,0,0,0,.19.06,2.436,2.436,0,0,0,.12.35.076.076,0,0,0,.05.02,6.9,6.9,0,0,1-.05-.92c-.39-.08-.6-.12-.6-.12Zm1.16,1a.6.6,0,0,0,.07-.08.549.549,0,0,0,.13.37,5.191,5.191,0,0,1-.03-1.04l-.18-.03c0,.26.01.57.01.78Zm.73.31a.722.722,0,0,0,.1-.08.346.346,0,0,0,.15.2,8.869,8.869,0,0,1-.05-1.06c-.1-.02-.19-.03-.28-.04C12.84,27,12.87,27.39,12.89,27.62Zm1.15.16a.1.1,0,0,0,.05-.05.69.69,0,0,0,.15.07,8.529,8.529,0,0,1-.04-1.02c-.05,0-.11-.01-.16-.01Zm1.07-.06a.391.391,0,0,0,.1-.15.29.29,0,0,0,.1.09c-.03-.29-.03-.66-.03-.97l-.21.03c.02.35.04.78.04,1Zm.78-.2a.467.467,0,0,0,.07-.19.9.9,0,0,0,.16.17c-.04-.29-.06-.68-.07-.99l-.21.06c.02.3.05.69.05.95Zm.7-.23a.34.34,0,0,0,.21.09v-.87l-.06-.22c-.04.01-.08.02-.11.03l-.04.97Zm.46-.06c.04-.04.04-.06.04-.06a.509.509,0,0,0,.31-.22l.06-.16a.414.414,0,0,0,.29-.26,3.5,3.5,0,0,0,.12-.44,4.941,4.941,0,0,0-.75.1c-.02.28-.05.7-.07,1.04Z" fill="#68b9b0" fill-rule="evenodd"/><path d="M11,26.31a3.19,3.19,0,0,0,.12.33.335.335,0,0,1,.17-.1c.15-.02.26.25.26.25s.01-.34.23-.33C11.27,26.37,11,26.31,11,26.31Zm6.83-.05a1.293,1.293,0,0,0,.04-.17,4.9,4.9,0,0,0-1.34.26c.19-.06.16.6.16.6s.28-.47.37-.5.15.24.15.24a1.235,1.235,0,0,1,.2-.21.16.16,0,0,1,.1.02.658.658,0,0,1,.32-.24Zm-1.3.09a.488.488,0,0,0-.07.03c-.22.07-.46.15-.72.21.17-.02.28.45.28.43S16.33,26.41,16.53,26.35Zm-.81.25a6.193,6.193,0,0,1-.81.14,1.129,1.129,0,0,1,.33.42s.29-.49.48-.56h0Zm-1.21.17a5.474,5.474,0,0,1-.8-.02,2.479,2.479,0,0,1,.43.48A1.063,1.063,0,0,1,14.51,26.77Zm-1.19-.06c-.04,0-.07-.01-.11-.01-.56-.09-1.02-.17-1.37-.23h0c.28.08.42.46.42.46s.04-.36.32-.28.43.53.43.53a1.2,1.2,0,0,1,.31-.47Z" fill="#68b9b0" fill-rule="evenodd"/><path d="M11,26.31a3.19,3.19,0,0,0,.12.33.335.335,0,0,1,.17-.1c.15-.02.26.25.26.25a.5.5,0,0,1,.05-.21v-.15C11.21,26.35,11,26.31,11,26.31Zm1.15.42v-.2l.18.03a1.21,1.21,0,0,0-.01.19.536.536,0,0,0-.06.18A.821.821,0,0,0,12.15,26.73Zm.68.1-.02-.19c.09.01.18.02.28.04V27c-.05.1-.08.18-.08.18a1.331,1.331,0,0,0-.18-.35Zm1.21.26v-.32c.05,0,.11.01.16.01v.33a1.071,1.071,0,0,0-.06.12s-.04-.06-.1-.14Zm1.04-.19c0-.06-.01-.12-.01-.18l.21-.03v.41a.247.247,0,0,1-.04.06,1.535,1.535,0,0,0-.16-.26Zm.76-.26v-.07l.21-.06c0,.13.01.28.02.43a.591.591,0,0,0-.05.08,1.359,1.359,0,0,0-.18-.38Zm.78-.24.01-.08c.03-.01.07-.02.11-.03l.06.22v.27c-.06.09-.11.17-.11.17A1.386,1.386,0,0,0,16.62,26.4Zm.48.05a2.111,2.111,0,0,1,.02-.26,4.941,4.941,0,0,1,.75-.1,1.293,1.293,0,0,1-.04.17.658.658,0,0,0-.32.24.16.16,0,0,0-.1-.02,1.235,1.235,0,0,0-.2.21s-.04-.2-.11-.24Z" fill="#68b9b0" fill-rule="evenodd"/><path d="M11.53,27.64a10.96,10.96,0,0,0,1.78,1.73,1.528,1.528,0,0,0,.78.13s1.27.2,1.71-.32,1.06-1.15,1.06-1.15a.848.848,0,0,0,.37-.37c.09-.23.21-.5.21-.5a3.155,3.155,0,0,1-1.2.57,7.355,7.355,0,0,0-1.68.7s-1.64-.5-3.03-.79Z" fill="#68b9b0" fill-rule="evenodd"/><path d="M11.53,27.64c.03.02.69.81,1.24,1.33a.653.653,0,0,0,0-.14,3.735,3.735,0,0,0-.26-.68,8.284,8.284,0,0,0,1.35.43,2.819,2.819,0,0,0,.87-.01l.08.27A5.775,5.775,0,0,1,16.09,28c.53-.19.56-.21.56-.21s-.06.29-.14.61c.2-.22.35-.37.35-.37a.848.848,0,0,0,.37-.37c.09-.23.21-.5.21-.5a3.155,3.155,0,0,1-1.2.57,7.355,7.355,0,0,0-1.68.7S12.92,27.93,11.53,27.64Z" fill="#68b9b0" fill-rule="evenodd"/><path d="M13.65,29.12a1.283,1.283,0,0,1,.58-.18c.29,0,.99.04.99.04l1.09-.96s-.05.28-.08.37a3.977,3.977,0,0,1-1.07.85c-.17,0-1.51-.12-1.51-.12Z" fill="#68b9b0" fill-rule="evenodd"/><path d="M15.69,29.48a5.779,5.779,0,0,1,.6-.72.871.871,0,0,1,.26-.1,2.2,2.2,0,0,1,.32-.4c.08-.05.26-.13.26-.13a2.819,2.819,0,0,1-1.44,1.35Z" fill="#68b9b0" fill-rule="evenodd"/><path d="M12.55,29.69a2.751,2.751,0,0,0,2.54.99,3.387,3.387,0,0,0,2.53-2.14,4.12,4.12,0,0,1-5.07,1.15Z" fill="#68b9b0" fill-rule="evenodd"/><path d="M4.18,14.74a3.863,3.863,0,0,1,.04-1.34,3.553,3.553,0,0,1,.17-.44s-.42-5.4.74-7.9A7.018,7.018,0,0,1,8.97,1.4c.53-.15.68-.18.68-.18A17.47,17.47,0,0,1,16.52.03c3.36.25,6.65,2.2,7.79,3.94s.62,9.98.62,9.98-.9.06-1.08-.11-1.77-2.05-2.47-2.2-.76-.15-.76-.15l-.13-.46a14.967,14.967,0,0,0-5.08-1.04,42.537,42.537,0,0,0-5.71.33s.07.43-.52.56a8.257,8.257,0,0,0-5,3.86ZM9.82,7.76s-.18-1.17.21-1.46.41-.33.41-.33A9.193,9.193,0,0,1,16.62,3.1c3.62,0,3.9,1.84,4.12,3.29a8.828,8.828,0,0,1,.09,2.41S17.96,6.95,9.82,7.76Z" fill="#68b9b0" fill-rule="evenodd"/><path d="M4.47,7.8a9.1,9.1,0,0,1,.66-2.74A7.018,7.018,0,0,1,8.97,1.4c.53-.15.68-.18.68-.18A17.945,17.945,0,0,1,15.96,0l.58,2.79-.59.34a2.452,2.452,0,0,0-1.97-.94A17.682,17.682,0,0,0,9.45,3.47l3.75-.09S9.33,5.79,7.16,6.86a14.7,14.7,0,0,1-2.69.94ZM16.17.01c.11,0,.23.01.35.02,3.36.25,6.65,2.2,7.79,3.94.84,1.28.78,6.03.69,8.49a5.531,5.531,0,0,1-2.78-2.03,14.118,14.118,0,0,1-1.46-5l3.1.3a4.144,4.144,0,0,0-.95-1.99,36.963,36.963,0,0,0-2.83-2.56l1.79,2.65A9.526,9.526,0,0,1,18.06,2.6,6.727,6.727,0,0,1,16.17.01Z" fill="#68b9b0" fill-rule="evenodd"/><path d="M4.18,14.74a3.863,3.863,0,0,1,.04-1.34,3.553,3.553,0,0,1,.17-.44s-.42-5.4.74-7.9A7.487,7.487,0,0,1,6.4,3.16a8.645,8.645,0,0,1,.57,1.92,10.172,10.172,0,0,1-.2,5.18l2.2-.03.58-4.07a2.9,2.9,0,0,0,1.15-.89,8.658,8.658,0,0,1,5.84-2.48c-.01-.09-.02-.17-.03-.26A19.867,19.867,0,0,0,16,0a1.62,1.62,0,0,0,.22.01,19.548,19.548,0,0,1,.5,2.49c.01.11.02.2.03.29a6.153,6.153,0,0,1,1.13.16c3.43.82,3.12,2.6,3.31,4.33a28.058,28.058,0,0,1,.15,3.33,10.218,10.218,0,0,1,1.78,1.46c.51.63,1.05,1.18,1.05,1.18s.03-4.2-.39-5.24-.57-1.4-.57-1.4a6.512,6.512,0,0,1,1.82,1.66c.09,2.74-.1,5.68-.1,5.68s-.9.06-1.08-.11-1.77-2.05-2.47-2.2-.76-.15-.76-.15l-.13-.46a14.967,14.967,0,0,0-5.08-1.04,42.537,42.537,0,0,0-5.71.33s.07.43-.52.56a8.257,8.257,0,0,0-5,3.86ZM9.82,7.76s-.18-1.17.21-1.46.41-.33.41-.33A9.193,9.193,0,0,1,16.62,3.1c3.62,0,3.9,1.84,4.12,3.29a8.828,8.828,0,0,1,.09,2.41S17.96,6.95,9.82,7.76Z" fill="#68b9b0" fill-rule="evenodd"/><path d="M20.55,11.22l-.06-.19a14.967,14.967,0,0,0-5.08-1.04,42.537,42.537,0,0,0-5.71.33.435.435,0,0,1-.02.17.507.507,0,0,1-.13-.3c-.02-.35.27-2.43.27-2.43C17.96,6.95,20.83,8.8,20.83,8.8a6.7,6.7,0,0,0,.04-.8l.07,3.16s-.16.02-.39.06Zm.31-3.63Z" fill="#68b9b0" fill-rule="evenodd"/><path d="M20.55,11.22l-.06-.19a14.967,14.967,0,0,0-5.08-1.04c-1.08-.02-2.17.02-3.11.08-.29-.32-.5-.56-.5-.56s3.15.25,4.42.3a27.568,27.568,0,0,1,3.05.37l-1.59-.66-3.66-.33s-.55-.25-.48-.67.82-.37.82-.37-.57.09-.67.36.43.53.43.53l4.66.52s-.53-.4-.62-.63-.25-.74-.25-.74l-3.74-.43s.32-.08.81-.18c4.24.18,5.85,1.22,5.85,1.22s.02-.15.03-.42l.02.02.06,2.76s-.16.02-.39.06Z" fill="#68b9b0" fill-rule="evenodd"/><path d="M20.55,11.22l-.06-.19a14.967,14.967,0,0,0-5.08-1.04,42.537,42.537,0,0,0-5.71.33.435.435,0,0,1-.02.17.507.507,0,0,1-.13-.3c-.02-.35.27-2.43.27-2.43a37.946,37.946,0,0,1,4.15-.21c-.36.16-.72.4-.75.79a1.305,1.305,0,0,0,1.01,1.42,41.115,41.115,0,0,1,4.1.37,9.988,9.988,0,0,1,2.24.65l.01-1.83a18.236,18.236,0,0,0-2.93-.86,15.124,15.124,0,0,0-3.03-.28s1.5,0,2.29.07,2.68.46,2.68.46l-.09-.08a5.685,5.685,0,0,1,1.33.54,6.7,6.7,0,0,0,.04-.8l.07,3.16s-.16.02-.39.06Z" fill="#68b9b0" fill-rule="evenodd"/><circle cx="0.24" cy="0.24" r="0.24" transform="translate(10.42 8.61)" fill="#68b9b0"/><circle cx="0.08" cy="0.08" r="0.08" transform="translate(10.66 8.71)" fill="#68b9b0"/><circle cx="0.24" cy="0.24" r="0.24" transform="translate(11.5 8.46)" fill="#68b9b0"/><circle cx="0.08" cy="0.08" r="0.08" transform="translate(11.74 8.56)" fill="#68b9b0"/><circle cx="0.24" cy="0.24" r="0.24" transform="translate(12.53 8.4)" fill="#68b9b0"/><circle cx="0.08" cy="0.08" r="0.08" transform="translate(12.77 8.5)" fill="#68b9b0"/><circle cx="0.24" cy="0.24" r="0.24" transform="translate(13.8 8.37)" fill="#68b9b0"/><circle cx="0.08" cy="0.08" r="0.08" transform="translate(14.04 8.47)" fill="#68b9b0"/><circle cx="0.24" cy="0.24" r="0.24" transform="translate(14.92 8.44)" fill="#68b9b0"/><circle cx="0.08" cy="0.08" r="0.08" transform="translate(15.16 8.54)" fill="#68b9b0"/><circle cx="0.24" cy="0.24" r="0.24" transform="translate(16 8.51)" fill="#68b9b0"/><circle cx="0.08" cy="0.08" r="0.08" transform="translate(16.24 8.61)" fill="#68b9b0"/><circle cx="0.24" cy="0.24" r="0.24" transform="translate(17.02 8.64)" fill="#68b9b0"/><circle cx="0.08" cy="0.08" r="0.08" transform="translate(17.25 8.74)" fill="#68b9b0"/><circle cx="0.24" cy="0.24" r="0.24" transform="translate(18.02 8.91)" fill="#68b9b0"/><circle cx="0.08" cy="0.08" r="0.08" transform="translate(18.26 9.01)" fill="#68b9b0"/><circle cx="0.24" cy="0.24" r="0.24" transform="translate(18.95 9.12)" fill="#68b9b0"/><circle cx="0.08" cy="0.08" r="0.08" transform="translate(19.19 9.22)" fill="#68b9b0"/><circle cx="0.24" cy="0.24" r="0.24" transform="translate(19.87 9.34)" fill="#68b9b0"/><circle cx="0.08" cy="0.08" r="0.08" transform="translate(20.11 9.44)" fill="#68b9b0"/></g></svg>